<svg width="55" height="55" viewBox="0 0 50 50" fill="none" xmlns="http://www.w3.org/2000/svg">
    <g filter="url(#filter0_bd_3876_538)">
    <path d="M38.6583 35.3588L35.9013 36.4605L33.0889 34.246L33.5133 31.3074L38.6583 35.3588Z" fill="url(#paint0_linear_3876_538)" fill-opacity="0.8" shape-rendering="crispEdges"/>
    <path d="M13.6659 39.0853C14.3174 39.0853 14.8455 38.5571 14.8455 37.9056C14.8455 37.254 14.3174 36.7259 13.6659 36.7259C13.0143 36.7259 12.4862 37.254 12.4862 37.9056C12.4862 38.5571 13.0143 39.0853 13.6659 39.0853Z" fill="url(#paint1_linear_3876_538)" fill-opacity="0.8" shape-rendering="crispEdges"/>
    <path fill-rule="evenodd" clip-rule="evenodd" d="M9 12.8001C9 11.2625 10.056 10.016 11.3587 10.016H37.6413C38.944 10.016 40 11.2625 40 12.8001V21.6723L33.1483 30.3735L39.6544 35.4967L40 35.0579V42.2319C40 43.7695 38.944 45.016 37.6413 45.016H11.3587C10.056 45.016 9 43.7695 9 42.2319V12.8001ZM15.6829 20.2595C15.8597 20.0474 15.8311 19.7321 15.6189 19.5553C15.4068 19.3785 15.0915 19.4072 14.9147 19.6193L12.8434 22.1049L12.2149 21.1621C12.0617 20.9323 11.7512 20.8702 11.5215 21.0234C11.2917 21.1766 11.2296 21.487 11.3828 21.7168L12.3828 23.2168C12.4703 23.348 12.6146 23.4303 12.7722 23.4387C12.9297 23.4471 13.0819 23.3807 13.1829 23.2595L15.6829 20.2595ZM15.6189 27.5553C15.8311 27.7321 15.8597 28.0474 15.6829 28.2595L13.1829 31.2595C13.0819 31.3807 12.9297 31.4471 12.7722 31.4387C12.6146 31.4303 12.4703 31.348 12.3828 31.2168L11.3828 29.7168C11.2296 29.487 11.2917 29.1766 11.5215 29.0234C11.7512 28.8702 12.0617 28.9323 12.2149 29.1621L12.8434 30.1049L14.9147 27.6193C15.0915 27.4072 15.4068 27.3785 15.6189 27.5553ZM31.9586 38.5744L39.6481 35.5017L33.1423 30.3788L31.9586 38.5744ZM17.3932 21.0722C17.1761 21.0722 17 21.2483 17 21.4655C17 21.6826 17.1761 21.8587 17.3932 21.8587H36.5922C36.8094 21.8587 36.9854 21.6826 36.9854 21.4655C36.9854 21.2483 36.8094 21.0722 36.5922 21.0722H17.3932ZM17 30.1592C17 29.942 17.1761 29.766 17.3932 29.766H31.7922C32.0093 29.766 32.1854 29.942 32.1854 30.1592C32.1854 30.3764 32.0093 30.5524 31.7922 30.5524H17.3932C17.1761 30.5524 17 30.3764 17 30.1592ZM17.3932 37.7675C17.1761 37.7675 17 37.9436 17 38.1608C17 38.378 17.1761 38.554 17.3932 38.554H30.8922C31.1093 38.554 31.2854 38.378 31.2854 38.1608C31.2854 37.9436 31.1093 37.7675 30.8922 37.7675H17.3932ZM13.6659 39.8717C14.7517 39.8717 15.632 38.9914 15.632 37.9056C15.632 36.8197 14.7517 35.9394 13.6659 35.9394C12.58 35.9394 11.6997 36.8197 11.6997 37.9056C11.6997 38.9914 12.58 39.8717 13.6659 39.8717ZM18.5 14.0004C19.3284 14.0004 20 13.3288 20 12.5004C20 11.6719 19.3284 11.0004 18.5 11.0004C17.6716 11.0004 17 11.6719 17 12.5004C17 13.3288 17.6716 14.0004 18.5 14.0004ZM26 12.5004C26 13.3288 25.3284 14.0004 24.5 14.0004C23.6716 14.0004 23 13.3288 23 12.5004C23 11.6719 23.6716 11.0004 24.5 11.0004C25.3284 11.0004 26 11.6719 26 12.5004ZM30.5 14.0004C31.3284 14.0004 32 13.3288 32 12.5004C32 11.6719 31.3284 11.0004 30.5 11.0004C29.6716 11.0004 29 11.6719 29 12.5004C29 13.3288 29.6716 14.0004 30.5 14.0004Z" fill="url(#paint2_linear_3876_538)" fill-opacity="0.8" shape-rendering="crispEdges"/>
    <path d="M46.6218 13.2498C46.9861 12.7859 47.6707 12.7366 48.0978 13.1433L52.8353 17.6545C53.2118 18.013 53.2508 18.6002 52.925 19.0053L40.0013 35.0785V21.6785L46.6218 13.2498Z" fill="url(#paint3_linear_3876_538)" fill-opacity="0.8" shape-rendering="crispEdges"/>
    <path d="M17.9891 8.50071C17.9891 8.22443 18.2131 8.00051 18.4894 8.00071C18.7654 8.00091 18.9891 8.22471 18.9891 8.50071V11.4996C18.9891 11.7758 18.7652 11.9996 18.4891 11.9996C18.2129 11.9996 17.9891 11.7758 17.9891 11.4996V8.50071Z" fill="url(#paint4_linear_3876_538)" fill-opacity="0.8" shape-rendering="crispEdges"/>
    <path d="M23.9851 8.5C23.9851 8.22372 24.2091 7.9998 24.4854 8C24.7614 8.0002 24.9851 8.224 24.9851 8.5V11.4989C24.9851 11.7751 24.7612 11.9989 24.4851 11.9989C24.2089 11.9989 23.9851 11.7751 23.9851 11.4989V8.5Z" fill="url(#paint5_linear_3876_538)" fill-opacity="0.8" shape-rendering="crispEdges"/>
    <path d="M29.9813 8.5C29.9813 8.22372 30.2053 7.9998 30.4816 8C30.7576 8.0002 30.9813 8.224 30.9813 8.5V11.4989C30.9813 11.7751 30.7574 11.9989 30.4813 11.9989C30.2051 11.9989 29.9813 11.7751 29.9813 11.4989V8.5Z" fill="url(#paint6_linear_3876_538)" fill-opacity="0.8" shape-rendering="crispEdges"/>
    </g>
    <defs>
    <filter id="filter0_bd_3876_538" x="0" y="0" width="64.1455" height="57.0156" filterUnits="userSpaceOnUse" color-interpolation-filters="sRGB">
    <feFlood flood-opacity="0" result="BackgroundImageFix"/>
    <feGaussianBlur in="BackgroundImageFix" stdDeviation="4"/>
    <feComposite in2="SourceAlpha" operator="in" result="effect1_backgroundBlur_3876_538"/>
    <feColorMatrix in="SourceAlpha" type="matrix" values="0 0 0 0 0 0 0 0 0 0 0 0 0 0 0 0 0 0 127 0" result="hardAlpha"/>
    <feOffset dx="1" dy="2"/>
    <feGaussianBlur stdDeviation="5"/>
    <feComposite in2="hardAlpha" operator="out"/>
    <feColorMatrix type="matrix" values="0 0 0 0 0 0 0 0 0 0 0 0 0 0 0 0 0 0 0.1 0"/>
    <feBlend mode="normal" in2="effect1_backgroundBlur_3876_538" result="effect2_dropShadow_3876_538"/>
    <feBlend mode="normal" in="SourceGraphic" in2="effect2_dropShadow_3876_538" result="shape"/>
    </filter>
    <linearGradient id="paint0_linear_3876_538" x1="9" y1="45.4453" x2="49" y2="9.94531" gradientUnits="userSpaceOnUse">
    <stop offset="0.298896" stop-color="white"/>
    <stop offset="0.618481" stop-color="white" stop-opacity="0.8"/>
    <stop offset="1" stop-color="white" stop-opacity="0.6"/>
    </linearGradient>
    <linearGradient id="paint1_linear_3876_538" x1="9" y1="45.4453" x2="49" y2="9.94531" gradientUnits="userSpaceOnUse">
    <stop offset="0.298896" stop-color="white"/>
    <stop offset="0.618481" stop-color="white" stop-opacity="0.8"/>
    <stop offset="1" stop-color="white" stop-opacity="0.6"/>
    </linearGradient>
    <linearGradient id="paint2_linear_3876_538" x1="9" y1="45.4453" x2="49" y2="9.94531" gradientUnits="userSpaceOnUse">
    <stop offset="0.298896" stop-color="white"/>
    <stop offset="0.618481" stop-color="white" stop-opacity="0.8"/>
    <stop offset="1" stop-color="white" stop-opacity="0.6"/>
    </linearGradient>
    <linearGradient id="paint3_linear_3876_538" x1="9" y1="45.4453" x2="49" y2="9.94531" gradientUnits="userSpaceOnUse">
    <stop offset="0.298896" stop-color="white"/>
    <stop offset="0.618481" stop-color="white" stop-opacity="0.8"/>
    <stop offset="1" stop-color="white" stop-opacity="0.6"/>
    </linearGradient>
    <linearGradient id="paint4_linear_3876_538" x1="9" y1="45.4453" x2="49" y2="9.94531" gradientUnits="userSpaceOnUse">
    <stop offset="0.298896" stop-color="white"/>
    <stop offset="0.618481" stop-color="white" stop-opacity="0.8"/>
    <stop offset="1" stop-color="white" stop-opacity="0.6"/>
    </linearGradient>
    <linearGradient id="paint5_linear_3876_538" x1="9" y1="45.4453" x2="49" y2="9.94531" gradientUnits="userSpaceOnUse">
    <stop offset="0.298896" stop-color="white"/>
    <stop offset="0.618481" stop-color="white" stop-opacity="0.8"/>
    <stop offset="1" stop-color="white" stop-opacity="0.6"/>
    </linearGradient>
    <linearGradient id="paint6_linear_3876_538" x1="9" y1="45.4453" x2="49" y2="9.94531" gradientUnits="userSpaceOnUse">
    <stop offset="0.298896" stop-color="white"/>
    <stop offset="0.618481" stop-color="white" stop-opacity="0.8"/>
    <stop offset="1" stop-color="white" stop-opacity="0.6"/>
    </linearGradient>
    </defs>
    </svg>
    