<svg width="42" height="42" viewBox="0 0 42 42" fill="none" xmlns="http://www.w3.org/2000/svg">
<path fill-rule="evenodd" clip-rule="evenodd" d="M6.15076 6.15076C10.089 2.21249 15.4305 0 21 0C26.5695 0 31.911 2.21249 35.8492 6.15076C39.7875 10.089 42 15.4305 42 21C42 26.5695 39.7875 31.911 35.8492 35.8492C31.911 39.7875 26.5695 42 21 42C15.4305 42 10.089 39.7875 6.15076 35.8492C2.2125 31.911 0 26.5695 0 21C0 15.4305 2.2125 10.089 6.15076 6.15076ZM29 13L17.7376 17.7376L13 29L24.4038 24.4038L29 13Z" fill="url(#paint0_linear_3757_266)" fill-opacity="0.8"/>
<path d="M21 23C20.4696 23 19.9609 22.7893 19.5858 22.4142C19.2107 22.0391 19 21.5304 19 21C19 20.4696 19.2107 19.9609 19.5858 19.5858C19.9609 19.2107 20.4696 19 21 19C21.5304 19 22.0391 19.2107 22.4142 19.5858C22.7893 19.9609 23 20.4696 23 21C23 21.5304 22.7893 22.0391 22.4142 22.4142C22.0391 22.7893 21.5304 23 21 23Z" fill="url(#paint1_linear_3757_266)" fill-opacity="0.8"/>
<defs>
<linearGradient id="paint0_linear_3757_266" x1="7.85965" y1="40.6132" x2="41.0075" y2="12.021" gradientUnits="userSpaceOnUse">
<stop offset="0.549996" stop-color="white"/>
<stop offset="0.70535" stop-color="white" stop-opacity="0.8"/>
<stop offset="1" stop-color="white" stop-opacity="0.6"/>
</linearGradient>
<linearGradient id="paint1_linear_3757_266" x1="19.7485" y1="19.1321" x2="22.9055" y2="21.8551" gradientUnits="userSpaceOnUse">
<stop offset="0.549996" stop-color="white"/>
<stop offset="0.70535" stop-color="white" stop-opacity="0.8"/>
<stop offset="1" stop-color="white" stop-opacity="0.6"/>
</linearGradient>
</defs>
</svg>
